<?xml version="1.0" encoding="utf-8"?>
<!-- Svg Vector Icons : http://www.onlinewebfonts.com/icon -->
<!DOCTYPE svg PUBLIC "-//W3C//DTD SVG 1.1//EN" "http://www.w3.org/Graphics/SVG/1.1/DTD/svg11.dtd">
<svg version="1.1" fill="#fff" xmlns="http://www.w3.org/2000/svg" xmlns:xlink="http://www.w3.org/1999/xlink" x="0px" y="0px" viewBox="0 0 1000 1000" enable-background="new 0 0 1000 1000" xml:space="preserve" width="24px" height="24px" fill="#fff">
<g><g transform="translate(0.000000,465.000000) scale(0.100000,-0.100000)"><path d="M869.1,3969.5l-53.6-46l-9.6-304.5l-9.6-302.6l-298.8-5.7c-293-3.8-298.8-5.8-344.7-53.6l-46-49.8l-5.7-3362.9c-3.8-2501.1,1.9-3378.3,17.2-3418.5c13.4-28.7,40.2-63.2,63.2-76.6c30.6-17.2,501.8-24.9,1936.2-32.6c2089.4-13.4,1993.6-7.7,2259.8-134c252.8-120.7,419.4-350.5,442.4-612.9c19.2-237.5,51.7-287.3,180-287.3c128.3,0,160.9,49.8,180,279.6c26.8,298.8,203,526.7,503.7,649.2c258.5,103.4,296.8,105.3,2250.3,105.3c1961.1,0,1899.8-3.8,1945.8,107.2c17.2,42.1,23,859.9,19.2,3420.4l-5.7,3362.9l-46,49.8c-46,47.9-51.7,49.8-344.7,53.6l-298.8,5.7l-9.6,302.6l-9.6,304.5l-53.6,46l-55.5,47.9l-1706.4-5.8l-1708.3-5.7l-128.3-49.8c-176.2-68.9-302.6-153.2-425.2-287.3l-103.4-111.1l-141.7,137.9c-162.8,160.9-279.6,229.8-486.4,281.5c-141.7,36.4-216.4,38.3-1800.2,38.3H922.7L869.1,3969.5z M4410.2,3609.5c151.3-70.9,271.9-187.7,346.6-339l61.3-126.4l5.7-3077.6l3.8-3079.5l-88.1,68.9c-160.9,120.6-342.8,197.2-626.2,262.3c-168.5,36.4-243.2,40.2-1568.5,46l-1394.2,7.7V522.3v3148.4l1576.1-3.8l1574.2-5.7L4410.2,3609.5z M6761.9,2494.9V1319l59.4-49.8c120.7-101.5,174.3-69,419.4,256.6c111.1,147.5,206.8,266.2,214.5,264.3c7.6-3.8,99.6-122.6,206.8-264.3c245.1-325.6,298.7-360,419.4-256.6l59.4,49.8v1175.9v1175.9h354.3h354.3V520.4v-3150.3H7591.2c-693.3,0-1344.4-9.6-1447.8-19.2c-369.6-36.4-679.9-139.8-881-293l-90-70.8l3.8,3077.6l5.7,3079.5l49.8,107.3c90,191.5,249,331.3,444.3,390.7c57.5,19.2,224.1,26.8,584.1,26.8l501.8,1.9V2494.9z M7815.2,2799.4c0-478.8-7.7-871.4-17.2-871.4c-7.7,0-49.8,49.8-93.8,111.1c-126.4,180-164.7,214.5-243.2,214.5c-97.7,0-120.7-17.2-239.4-180c-57.5-78.5-111.1-145.6-118.7-145.6c-9.6,0-15.3,392.6-15.3,871.4v871.4h363.9h363.9V2799.4z M800.2,60.8c3.8-2108.5,11.5-2922.5,26.8-2951.2c11.5-23,42.1-51.7,68.9-63.2c32.5-15.3,461.5-21.1,1447.8-21.1c1488,0,1643.2-7.7,1890.2-90c308.3-101.5,519-312.1,565-566.9l15.3-74.7l-88.1,67c-180,137.9-450,235.6-769.9,279.6c-93.8,13.4-741.2,21.1-1830.8,21.1H442V-192c0,1731.3,5.7,3154.2,13.4,3161.9c7.7,7.7,88.1,9.6,178.1,7.7l162.8-5.7L800.2,60.8z M9558-178.6v-3159.9H7868.8c-1773.4,0-1884.5-3.8-2160.2-88.1c-147.5-44-331.3-134-434.7-212.6l-88.1-67l15.3,74.7c21.1,120.7,78.5,229.8,174.3,331.3c158.9,168.5,384.9,266.2,716.3,306.4c95.8,11.5,727.7,19.1,1566.6,19.1c1444,0,1453.6,0,1511,74.7c19.2,23,23,683.7,24.9,2943.5c0,1601,5.7,2918.6,13.4,2924.4c5.7,7.7,88.1,13.4,181.9,13.4H9558V-178.6z"/><path d="M2650.2,2598.3c-59.4-24.9-107.2-124.5-91.9-193.4c7.7-30.6,34.5-72.8,61.3-93.8c44-34.5,78.5-38.3,354.3-38.3c383,0,436.6,21.1,436.6,172.4c0,151.3-53.6,172.4-425.2,170.4C2824.4,2615.5,2673.1,2607.9,2650.2,2598.3z"/><path d="M1945.4,1541.2c-61.3-32.5-86.2-74.7-86.2-151.3c0-55.5,13.4-82.3,59.4-120.6l59.4-51.7l1024.6,5.8l1024.6,5.7l46,53.6c63.2,74.7,59.4,155.1-9.6,226l-55.5,55.5H2994.9C2299.7,1562.2,1972.2,1556.5,1945.4,1541.2z"/><path d="M1907.1,463c-67-65.1-65.1-178.1,1.9-241.3l49.8-46l997.8-5.7c923.1-3.8,1005.4-1.9,1066.7,28.7c109.2,55.5,126.4,187.7,34.5,273.9c-40.2,38.3-63.2,38.3-1072.5,38.3H1953.1L1907.1,463z"/><path d="M1907.1-590.3c-65.1-63.2-65.1-166.6,0-229.8l46-47.9h1036.1h1036.1l46,47.9c26.8,24.9,47.9,68.9,47.9,95.8c0,63.2-46,155.1-86.2,170.4c-17.2,5.7-492.2,11.5-1055.2,11.5H1953.1L1907.1-590.3z"/><path d="M1979.9-1592c-113-15.3-159-197.2-72.8-281.5l46-47.9h1032.2c1009.3,0,1032.3,0,1072.5,38.3c82.4,76.6,78.5,204.9-7.7,260.4c-44,30.6-147.5,32.5-1038,34.5C2468.2-1586.2,2002.9-1588.1,1979.9-1592z"/><path d="M5942.3,472.5c-88.1-82.3-78.5-208.7,21.1-268.1c59.4-38.3,93.8-38.3,1072.5-34.5l1013.1,5.7l45.9,53.6c61.3,72.8,61.3,172.4-1.9,233.6l-46,47.9H7014.7C6005.4,510.8,5982.5,510.8,5942.3,472.5z"/><path d="M5928.8-592.3c-63.2-69-63.2-166.6,0-227.9l46-47.9h1036.1H8047l46,47.9c32.6,30.6,47.9,67,47.9,114.9s-15.3,84.2-47.9,114.9l-46,47.9H7010.9H5974.8L5928.8-592.3z"/><path d="M6055.2-1595.8c-76.6-7.7-111.1-23-137.9-55.5c-57.5-70.9-40.2-185.8,38.3-245.2c23-17.2,281.5-23,1061-24.9H8047l46,47.9c63.2,61.3,63.2,160.9,3.8,229.8l-42.1,51.7l-948,1.9C6585.7-1588.1,6112.7-1590,6055.2-1595.8z"/></g></g>
</svg>
