<?xml version="1.0" encoding="utf-8"?>
<!-- Svg Vector Icons : http://www.onlinewebfonts.com/icon -->
<!DOCTYPE svg PUBLIC "-//W3C//DTD SVG 1.1//EN" "http://www.w3.org/Graphics/SVG/1.1/DTD/svg11.dtd">
<svg version="1.1" fill="#fff" xmlns="http://www.w3.org/2000/svg" xmlns:xlink="http://www.w3.org/1999/xlink" x="0px" y="0px" viewBox="0 0 1000 1000" enable-background="new 0 0 1000 1000" xml:space="preserve" width="24px" height="24px" fill="#fff">
<g><g><path d="M83.7,965.9h832.5c40.7,0,73.7-33,73.7-73.7V107.8c0-40.7-33-73.7-73.7-73.7H83.7C43,34.1,10,67.1,10,107.8v784.4C10,932.9,43,965.9,83.7,965.9z M818,137.3h86v86h-86V137.3L818,137.3z M818,303.2h86v86h-86V303.2L818,303.2z M818,469.1h86v86h-86V469.1L818,469.1z M818,635h86v86h-86V635L818,635z M818,800.9h86v86h-86V800.9L818,800.9z M102.2,130.3h86v86h-86V130.3z M102.2,296.2h86v86h-86V296.2z M102.2,462.1h86v86h-86V462.1z M102.2,628h86v86h-86V628z M102.2,793.9h86v86h-86V793.9z"/></g><g></g><g></g><g></g><g></g><g></g><g></g><g></g><g></g><g></g><g></g><g></g><g></g><g></g><g></g><g></g></g>
</svg>
