<?xml version="1.0" encoding="utf-8"?>
<!-- Svg Vector Icons : http://www.onlinewebfonts.com/icon -->
<!DOCTYPE svg PUBLIC "-//W3C//DTD SVG 1.1//EN" "http://www.w3.org/Graphics/SVG/1.1/DTD/svg11.dtd">
<svg version="1.1" fill="#fff" xmlns="http://www.w3.org/2000/svg" xmlns:xlink="http://www.w3.org/1999/xlink" x="0px" y="0px" viewBox="0 0 1000 1000" enable-background="new 0 0 1000 1000" xml:space="preserve" width="24px" height="24px" fill="#fff">
<g><path d="M972.2,241.9L788.4,58.4c-11.5-11.5-27.1-17.9-43.3-17.9l-643.2,0C51.4,40.5,10,81.9,10,132.4v734.9c0,50.8,41.4,92.1,91.9,92.1l796.3,0c50.8,0,91.9-41.4,91.9-92.1V285.5C990,269.2,983.7,253.6,972.2,241.9L972.2,241.9z M928.9,867.3c0,16.9-13.9,30.7-30.7,30.7l-796.4,0c-16.9,0-30.5-13.7-30.5-30.7V132.4c0-16.9,13.9-30.5,30.5-30.5h612.7v122.5c0,50.8,41,91.9,91.9,91.9h122.5L928.9,867.3L928.9,867.3z M806.3,285.5c-33.6,0-61.2-27.4-61.2-61.2h0.3V101.7l183.7,183.7H806.3L806.3,285.5z M484.7,254.8h153.1c8.4,0,15.3-6.8,15.3-15.3c0-8.4-6.8-15.3-15.3-15.3l-153.1,0c-8.4,0-15.3,6.8-15.3,15.3C469.5,248,476.2,254.8,484.7,254.8L484.7,254.8z M484.7,346.7h153.1c8.4,0,15.3-6.8,15.3-15.3c0-8.4-6.8-15.3-15.3-15.3H484.7c-8.4,0-15.3,6.8-15.3,15.3C469.5,339.8,476.2,346.7,484.7,346.7L484.7,346.7z M469.5,423.3c0,8.4,6.8,15.3,15.3,15.3h367.5c8.4,0,15.3-6.8,15.3-15.3c0-8.4-6.8-15.3-15.3-15.3H484.7C476.2,407.7,469.5,414.8,469.5,423.3L469.5,423.3z M852.4,591.7H147.9c-8.4,0-15.3,6.8-15.3,15.3c0,8.4,6.8,15.3,15.3,15.3h704.3c8.4,0,15.3-6.8,15.3-15.3C867.5,598.4,860.6,591.7,852.4,591.7L852.4,591.7z M852.4,683.6H147.9c-8.4,0-15.3,6.8-15.3,15.3c0,8.4,6.8,15.3,15.3,15.3h704.3c8.4,0,15.3-7.1,15.3-15.3C867.5,690.3,860.6,683.6,852.4,683.6L852.4,683.6z M852.4,775.5H147.9c-8.4,0-15.3,6.8-15.3,15.3c0,8.4,6.8,15.1,15.3,15.1h704.3c8.4,0,15.3-6.8,15.3-15.1C867.5,782.2,860.6,775.5,852.4,775.5L852.4,775.5z M852.4,499.9H147.9c-8.4,0-15.3,6.8-15.3,15.3c0,8.4,6.8,15.3,15.3,15.3h704.3c8.4,0,15.3-6.8,15.3-15.3C867.5,506.7,860.6,499.9,852.4,499.9L852.4,499.9z M163.2,438.7h214.4c16.9,0,30.7-13.9,30.7-30.7V224.3c0-16.9-13.9-30.7-30.7-30.7H163.2c-17,0-30.7,13.9-30.7,30.7V408C132.5,424.9,146.2,438.7,163.2,438.7L163.2,438.7z M193.7,254.8h152.9v122.5l-152.9,0V254.8L193.7,254.8z"/></g>
</svg>
